<?xml version="1.0" standalone="no"?>
<!DOCTYPE svg PUBLIC "-//W3C//DTD SVG 20010904//EN"
 "http://www.w3.org/TR/2001/REC-SVG-20010904/DTD/svg10.dtd">
<svg version="1.0" xmlns="http://www.w3.org/2000/svg"
 width="78.000000pt" height="78.000000pt" viewBox="0 0 78.000000 78.000000"
 preserveAspectRatio="xMidYMid meet">
<metadata>
Created by potrace 1.14, written by Peter Selinger 2001-2017
</metadata>
<g transform="translate(0.000000,78.000000) scale(0.100000,-0.100000)"
fill="#000000" stroke="none">
<path d="M341 715 l-53 -53 -70 -1 c-38 0 -73 -3 -77 -5 -4 -3 -7 -40 -5 -82
l2 -77 -56 -59 -56 -59 56 -57 55 -57 -2 -78 -1 -77 76 0 77 0 56 -55 56 -55
57 52 c57 54 61 55 157 57 l47 1 0 76 0 76 55 60 56 60 -56 56 -55 57 0 82 c0
72 -2 83 -17 84 -10 0 -45 1 -78 2 -54 2 -63 5 -95 37 -76 76 -69 75 -129 15z
m124 -24 c39 -41 40 -41 112 -41 l73 0 0 -84 c0 -46 3 -86 8 -88 4 -2 27 -25
51 -50 l45 -47 -55 -58 -55 -58 3 -72 3 -73 -72 0 -72 0 -53 -52 -53 -52 -52
51 -53 52 -75 3 -75 3 2 77 2 77 -49 43 c-28 24 -50 48 -50 53 0 6 23 34 50
64 l50 54 0 78 0 79 73 0 73 0 48 49 c56 56 58 56 121 -8z"/>
<path d="M380 717 c-8 -7 -26 -25 -39 -40 l-24 -27 83 0 84 0 -39 40 c-43 44
-44 45 -65 27z"/>
<path d="M166 630 c-2 -3 -4 -116 -5 -251 l-1 -245 237 0 236 1 0 228 c-1 125
-2 237 -2 250 l-1 22 -231 0 c-127 1 -232 -2 -233 -5z"/>
<path d="M108 427 c-21 -21 -38 -44 -38 -49 0 -6 17 -26 38 -45 l37 -33 3 40
c2 22 2 59 0 83 l-3 42 -37 -38z"/>
<path d="M650 380 l0 -85 42 43 43 42 -43 42 -42 43 0 -85z"/>
<path d="M358 78 l42 -43 42 43 43 42 -85 0 -85 0 43 -42z"/>
</g>
</svg>
